<?xml version="1.0" encoding="UTF-8"?>
<svg version="1.1" xmlns="http://www.w3.org/2000/svg" width="3334" height="3334">
<path d="M0 0 C0.66 0 1.32 0 2 0 C3.52887433 2.22043412 4.93106451 4.43920066 6.3125 6.75 C7.22092286 8.2367376 8.13116235 9.72236635 9.04296875 11.20703125 C9.76685791 12.38773193 9.76685791 12.38773193 10.50537109 13.59228516 C12.98200712 17.58192653 15.55406277 21.50821999 18.125 25.4375 C23.12613138 33.09798094 28.07606772 40.78967921 33 48.5 C37.80341041 56.01979429 42.62638605 63.52550479 47.5 71 C53.06984496 79.54228092 58.56888375 88.12870796 64.05859375 96.72265625 C68.17805883 103.1667331 72.32263671 109.59332064 76.5 116 C81.37361487 123.47449662 86.19644288 130.98029838 91 138.5 C97.46138978 148.6138816 103.97942735 158.68916895 110.53125 168.74462891 C118.06597455 180.31473951 125.52088476 191.93495827 132.95629883 203.5690918 C137.62564426 210.86897669 142.33299625 218.1428413 147.06591797 225.40161133 C151.41359982 232.0779794 155.71100275 238.78581325 160 245.5 C166.46138978 255.6138816 172.97942735 265.68916895 179.53125 275.74462891 C187.06597455 287.31473951 194.52088476 298.93495827 201.95629883 310.5690918 C206.62564426 317.86897669 211.33299625 325.1428413 216.06591797 332.40161133 C220.41359982 339.0779794 224.71100275 345.78581325 229 352.5 C235.46138978 362.6138816 241.97942735 372.68916895 248.53125 382.74462891 C256.06597455 394.31473951 263.52088476 405.93495827 270.95629883 417.5690918 C275.62564426 424.86897669 280.33299625 432.1428413 285.06591797 439.40161133 C289.41359982 446.0779794 293.71100275 452.78581325 298 459.5 C304.44368036 469.58616142 310.94409546 479.63360072 317.47851562 489.66113281 C320.46325906 494.24936165 323.43192958 498.84801776 326.3996582 503.44726562 C326.81562256 504.09115234 327.23158691 504.73503906 327.66015625 505.3984375 C328.05219238 506.00655273 328.44422852 506.61466797 328.84814453 507.24121094 C329.97604775 508.96342687 331.14047456 510.6564838 332.30859375 512.3515625 C334 515 334 515 334 517 C174.61 517 15.22 517 -149 517 C-143.38026745 506.8844814 -143.38026745 506.8844814 -140.79296875 502.96875 C-139.92490601 501.64774292 -139.92490601 501.64774292 -139.03930664 500.30004883 C-138.42821045 499.37603271 -137.81711426 498.4520166 -137.1875 497.5 C-130.92726261 487.97273778 -124.75069958 478.39584773 -118.6315918 468.77734375 C-106.06402302 449.06402302 -106.06402302 449.06402302 -104 447 C-102.4102589 446.89796627 -100.81598099 446.86601421 -99.22297573 446.8613348 C-98.1829328 446.85586036 -97.14288987 446.85038591 -96.07133049 446.84474558 C-94.91474074 446.84376747 -93.75815099 446.84278936 -92.56651306 446.84178162 C-91.34876003 446.83684364 -90.131007 446.83190566 -88.87635237 446.82681805 C-85.48093374 446.81406039 -82.08555656 446.80580356 -78.69012344 446.79939139 C-75.03433475 446.79141029 -71.37856715 446.77770469 -67.72279358 446.76467896 C-61.38383072 446.74288358 -55.04486576 446.72475034 -48.70588493 446.70907402 C-39.5406778 446.68640319 -30.37549399 446.65825656 -21.21030659 446.62875474 C-6.34195621 446.58104457 8.52640368 446.53778971 23.39477539 446.49731445 C37.84172303 446.45797693 52.28866221 446.41655491 66.7355957 446.37231445 C68.07038864 446.36822804 68.07038864 446.36822804 69.43214709 446.36405908 C73.8961298 446.35037989 78.36011238 446.33665956 82.82409489 446.32291877 C119.88271236 446.20890021 156.94134788 446.10210279 194 446 C193.56921206 445.3399808 193.13842411 444.67996161 192.69458199 443.99994183 C190.72338875 440.97953206 188.75256067 437.95888419 186.78173828 434.93823242 C186.10407913 433.89999077 185.42641998 432.86174911 184.72822571 431.79204559 C180.07267798 424.65579873 175.45079948 417.50017185 170.875 410.3125 C166.11456429 402.85432955 161.33282061 395.41147667 156.5 388 C151.62636183 380.52551877 146.80355695 373.01970135 142 365.5 C135.53861022 355.3861184 129.02057265 345.31083105 122.46875 335.25537109 C114.93402545 323.68526049 107.47911524 312.06504173 100.04370117 300.4309082 C95.37435574 293.13102331 90.66700375 285.8571587 85.93408203 278.59838867 C81.58640018 271.9220206 77.28899725 265.21418675 73 258.5 C66.53861022 248.3861184 60.02057265 238.31083105 53.46875 228.25537109 C46.63709438 217.76487332 39.86682165 207.23593386 33.125 196.6875 C26.64432258 186.54844961 20.10855832 176.44688373 13.5390625 166.36523438 C10.91440646 162.33165764 8.30076406 158.29096328 5.6875 154.25 C4.97533325 153.14881836 4.97533325 153.14881836 4.2487793 152.02539062 C3.16567574 150.35037494 2.08280837 148.67520653 1 147 C-4.10451176 154.15263052 -8.91840514 161.45573716 -13.625 168.875 C-15.04368792 171.10193395 -16.46296582 173.32849216 -17.8828125 175.5546875 C-18.92937012 177.1958252 -18.92937012 177.1958252 -19.99707031 178.87011719 C-22.80775249 183.26223633 -25.65048465 187.63301246 -28.5 192 C-33.37389158 199.47431423 -38.19644485 206.98030146 -43 214.5 C-49.46138978 224.6138816 -55.97942735 234.68916895 -62.53125 244.74462891 C-70.06597455 256.31473951 -77.52088476 267.93495827 -84.95629883 279.5690918 C-89.62564426 286.86897669 -94.33299625 294.1428413 -99.06591797 301.40161133 C-103.41359982 308.0779794 -107.71100275 314.78581325 -112 321.5 C-118.46138978 331.6138816 -124.97942735 341.68916895 -131.53125 351.74462891 C-139.06597455 363.31473951 -146.52088476 374.93495827 -153.95629883 386.5690918 C-158.62564426 393.86897669 -163.33299625 401.1428413 -168.06591797 408.40161133 C-172.41359982 415.0779794 -176.71100275 421.78581325 -181 428.5 C-187.46138978 438.6138816 -193.97942735 448.68916895 -200.53125 458.74462891 C-208.10490184 470.37451516 -215.6045096 482.05125999 -223.0793457 493.74487305 C-224.33766095 495.71335025 -225.6145563 497.67010862 -226.91220093 499.61288452 C-229.07885946 502.95502122 -229.07885946 502.95502122 -230.59712219 506.62364197 C-232.75529827 511.29019079 -235.04497044 515.91026958 -240.10912323 517.77778435 C-246.56815429 519.00343458 -253.1249845 518.60432984 -259.66015625 518.3671875 C-261.77714979 518.34104876 -263.89422849 518.32113299 -266.01133728 518.30715942 C-271.5620951 518.25390718 -277.10765658 518.116595 -282.65637207 517.96130371 C-288.32684014 517.81762665 -293.99815511 517.75405096 -299.66992188 517.68359375 C-310.7822212 517.53381124 -321.89067724 517.29514464 -333 517 C-330.33910575 512.13586898 -327.66839156 507.3211178 -324.6171875 502.6875 C-324.01334229 501.76662598 -323.40949707 500.84575195 -322.78735352 499.89697266 C-322.15627686 498.94097168 -321.5252002 497.9849707 -320.875 497 C-319.52712416 494.94545654 -318.17946918 492.89076818 -316.83203125 490.8359375 C-316.17541504 489.8365918 -315.51879883 488.83724609 -314.84228516 487.80761719 C-312.40210633 484.08881828 -309.97796457 480.3598866 -307.5625 476.625 C-307.13614258 475.96604736 -306.70978516 475.30709473 -306.27050781 474.62817383 C-301.50162409 467.24580946 -296.77611205 459.8356338 -292.04321289 452.43017578 C-287.37405723 445.13051766 -282.6668435 437.85691292 -277.93408203 430.59838867 C-273.58640018 423.9220206 -269.28899725 417.21418675 -265 410.5 C-258.53861022 400.3861184 -252.02057265 390.31083105 -245.46875 380.25537109 C-237.93402545 368.68526049 -230.47911524 357.06504173 -223.04370117 345.4309082 C-218.37435574 338.13102331 -213.66700375 330.8571587 -208.93408203 323.59838867 C-204.58640043 316.922021 -200.28895722 310.21421196 -196 303.5 C-190.68177342 295.17450299 -185.32941036 286.87303585 -179.93359375 278.59765625 C-175.58609379 271.92151995 -171.28883931 265.2139395 -167 258.5 C-160.53861022 248.3861184 -154.02057265 238.31083105 -147.46875 228.25537109 C-139.93402545 216.68526049 -132.47911524 205.06504173 -125.04370117 193.4309082 C-120.37435574 186.13102331 -115.66700375 178.8571587 -110.93408203 171.59838867 C-106.58640018 164.9220206 -102.28899725 158.21418675 -98 151.5 C-91.53861022 141.3861184 -85.02057265 131.31083105 -78.46875 121.25537109 C-70.93402545 109.68526049 -63.47911524 98.06504173 -56.04370117 86.4309082 C-51.37435574 79.13102331 -46.66700375 71.8571587 -41.93408203 64.59838867 C-37.58639973 57.92201992 -33.28906766 51.21414236 -29 44.5 C-22.51072169 34.34458994 -15.98637697 24.21344365 -9.38818359 14.12841797 C-8.08031409 12.12314074 -6.78302998 10.11142037 -5.48828125 8.09765625 C-4.77027344 6.99292969 -4.05226563 5.88820313 -3.3125 4.75 C-2.40951172 3.35007812 -2.40951172 3.35007812 -1.48828125 1.921875 C-0.99714844 1.28765625 -0.50601562 0.6534375 0 0 Z " fill="#FEFEFE" transform="translate(1666,1215)"/>
<path d="M0 0 C0.66 0 1.32 0 2 0 C3.52887433 2.22043412 4.93106451 4.43920066 6.3125 6.75 C7.22092286 8.2367376 8.13116235 9.72236635 9.04296875 11.20703125 C9.76685791 12.38773193 9.76685791 12.38773193 10.50537109 13.59228516 C12.98200712 17.58192653 15.55406277 21.50821999 18.125 25.4375 C23.12613138 33.09798094 28.07606772 40.78967921 33 48.5 C37.80341041 56.01979429 42.62638605 63.52550479 47.5 71 C53.06984496 79.54228092 58.56888375 88.12870796 64.05859375 96.72265625 C68.17805883 103.1667331 72.32263671 109.59332064 76.5 116 C81.37361538 123.4744974 86.19636404 130.98034813 91 138.5 C95.97569706 146.28672783 100.96542159 154.06368519 106 161.8125 C106.52811279 162.6257373 107.05622559 163.43897461 107.6003418 164.27685547 C111.23477853 169.85932257 114.93506876 175.39207948 118.70703125 180.8828125 C120 183 120 183 120 185 C107.86522941 185.23187962 95.73098715 185.40947211 83.59445095 185.51812172 C77.95857337 185.57027425 72.32421317 185.64098538 66.68920898 185.75439453 C61.24907132 185.8631944 55.81039111 185.92287076 50.36924934 185.94877243 C48.29544183 185.96722532 46.22171263 186.00326299 44.14852715 186.05730057 C27.91293085 186.46358196 27.91293085 186.46358196 23.25959778 182.90332031 C21.42945287 180.33253636 20.18972521 177.91438652 19 175 C18.33460205 173.9903418 17.6692041 172.98068359 16.98364258 171.94042969 C16.19703247 170.69374512 16.19703247 170.69374512 15.39453125 169.421875 C14.80349609 168.48859375 14.21246094 167.5553125 13.60351562 166.59375 C13.01248047 165.6553125 12.42144531 164.716875 11.8125 163.75 C6.49293528 155.31859463 6.49293528 155.31859463 1 147 C-4.10451176 154.15263052 -8.91840514 161.45573716 -13.625 168.875 C-15.04368792 171.10193395 -16.46296582 173.32849216 -17.8828125 175.5546875 C-18.92937012 177.1958252 -18.92937012 177.1958252 -19.99707031 178.87011719 C-22.80775249 183.26223633 -25.65048465 187.63301246 -28.5 192 C-33.37389158 199.47431423 -38.19644485 206.98030146 -43 214.5 C-49.46138978 224.6138816 -55.97942735 234.68916895 -62.53125 244.74462891 C-70.06597455 256.31473951 -77.52088476 267.93495827 -84.95629883 279.5690918 C-89.62564426 286.86897669 -94.33299625 294.1428413 -99.06591797 301.40161133 C-103.41359982 308.0779794 -107.71100275 314.78581325 -112 321.5 C-118.46138978 331.6138816 -124.97942735 341.68916895 -131.53125 351.74462891 C-139.06597455 363.31473951 -146.52088476 374.93495827 -153.95629883 386.5690918 C-158.62564426 393.86897669 -163.33299625 401.1428413 -168.06591797 408.40161133 C-172.41359982 415.0779794 -176.71100275 421.78581325 -181 428.5 C-187.46138978 438.6138816 -193.97942735 448.68916895 -200.53125 458.74462891 C-208.10490184 470.37451516 -215.6045096 482.05125999 -223.0793457 493.74487305 C-224.33766095 495.71335025 -225.6145563 497.67010862 -226.91220093 499.61288452 C-229.07885946 502.95502122 -229.07885946 502.95502122 -230.59712219 506.62364197 C-232.75529827 511.29019079 -235.04497044 515.91026958 -240.10912323 517.77778435 C-246.56815429 519.00343458 -253.1249845 518.60432984 -259.66015625 518.3671875 C-261.77714979 518.34104876 -263.89422849 518.32113299 -266.01133728 518.30715942 C-271.5620951 518.25390718 -277.10765658 518.116595 -282.65637207 517.96130371 C-288.32684014 517.81762665 -293.99815511 517.75405096 -299.66992188 517.68359375 C-310.7822212 517.53381124 -321.89067724 517.29514464 -333 517 C-330.33910575 512.13586898 -327.66839156 507.3211178 -324.6171875 502.6875 C-324.01334229 501.76662598 -323.40949707 500.84575195 -322.78735352 499.89697266 C-322.15627686 498.94097168 -321.5252002 497.9849707 -320.875 497 C-319.52712416 494.94545654 -318.17946918 492.89076818 -316.83203125 490.8359375 C-316.17541504 489.8365918 -315.51879883 488.83724609 -314.84228516 487.80761719 C-312.40210633 484.08881828 -309.97796457 480.3598866 -307.5625 476.625 C-307.13614258 475.96604736 -306.70978516 475.30709473 -306.27050781 474.62817383 C-301.50162409 467.24580946 -296.77611205 459.8356338 -292.04321289 452.43017578 C-287.37405723 445.13051766 -282.6668435 437.85691292 -277.93408203 430.59838867 C-273.58640018 423.9220206 -269.28899725 417.21418675 -265 410.5 C-258.53861022 400.3861184 -252.02057265 390.31083105 -245.46875 380.25537109 C-237.93402545 368.68526049 -230.47911524 357.06504173 -223.04370117 345.4309082 C-218.37435574 338.13102331 -213.66700375 330.8571587 -208.93408203 323.59838867 C-204.58640043 316.922021 -200.28895722 310.21421196 -196 303.5 C-190.68177342 295.17450299 -185.32941036 286.87303585 -179.93359375 278.59765625 C-175.58609379 271.92151995 -171.28883931 265.2139395 -167 258.5 C-160.53861022 248.3861184 -154.02057265 238.31083105 -147.46875 228.25537109 C-139.93402545 216.68526049 -132.47911524 205.06504173 -125.04370117 193.4309082 C-120.37435574 186.13102331 -115.66700375 178.8571587 -110.93408203 171.59838867 C-106.58640018 164.9220206 -102.28899725 158.21418675 -98 151.5 C-91.53861022 141.3861184 -85.02057265 131.31083105 -78.46875 121.25537109 C-70.93402545 109.68526049 -63.47911524 98.06504173 -56.04370117 86.4309082 C-51.37435574 79.13102331 -46.66700375 71.8571587 -41.93408203 64.59838867 C-37.58639973 57.92201992 -33.28906766 51.21414236 -29 44.5 C-22.51072169 34.34458994 -15.98637697 24.21344365 -9.38818359 14.12841797 C-8.08031409 12.12314074 -6.78302998 10.11142037 -5.48828125 8.09765625 C-4.77027344 6.99292969 -4.05226563 5.88820313 -3.3125 4.75 C-2.40951172 3.35007812 -2.40951172 3.35007812 -1.48828125 1.921875 C-0.99714844 1.28765625 -0.50601562 0.6534375 0 0 Z " fill="#EAEAEA" transform="translate(1666,1215)"/>
<path d="M0 0 C20.18247956 -0.72511903 38.39962803 6.11280882 53.609375 19.15625 C54.33511719 19.76984375 55.06085938 20.3834375 55.80859375 21.015625 C70.64618801 34.65804958 79.72533533 56.70864824 80.73339844 76.60400391 C81.5244945 103.65265266 76.37780361 127.60482068 57.609375 148.15625 C43.05687496 163.15692486 23.22773917 169.94686312 2.609375 170.40625 C-8.89737656 170.14987415 -25.85810777 168.68876723 -34.390625 160.15625 C-39.010625 146.95625 -43.630625 133.75625 -48.390625 120.15625 C-48.720625 151.83625 -49.050625 183.51625 -49.390625 216.15625 C-65.560625 216.15625 -81.730625 216.15625 -98.390625 216.15625 C-98.390625 146.19625 -98.390625 76.23625 -98.390625 4.15625 C-82.220625 4.15625 -66.050625 4.15625 -49.390625 4.15625 C-48.895625 11.58125 -48.895625 11.58125 -48.390625 19.15625 C-46.988125 17.96 -45.585625 16.76375 -44.140625 15.53125 C-31.23933157 5.28983053 -16.22857901 1.06069144 0 0 Z M-41.85546875 59.02734375 C-49.46739642 69.58332487 -49.98424521 82.79804901 -50.31054688 95.36987305 C-50.36403537 96.93881458 -50.44621278 98.50703373 -50.55664062 100.07299805 C-51.39969787 108.92428793 -51.39969787 108.92428793 -48.04541016 116.75604248 C-36.03549817 127.01223636 -20.59053491 128.96670797 -5.390625 128.15625 C5.98782155 126.66913888 15.86091337 121.36477807 23.11328125 112.390625 C30.54839362 101.28648851 33.14978023 89.26596838 31.14453125 76.10546875 C28.72264335 65.05650086 24.06655629 55.67475914 14.609375 49.15625 C-4.70118513 37.41483868 -27.69370651 42.02677723 -41.85546875 59.02734375 Z " fill="#FFFFFF" transform="translate(1624.390625,1901.84375)"/>
<path d="M0 0 C112.42176213 0 112.42176213 0 128.4375 5.75 C129.54266968 6.13514771 129.54266968 6.13514771 130.67016602 6.52807617 C147.59096688 12.67084971 162.77916743 24.17877774 170.8203125 40.5625 C173.64463248 46.89334286 176.00137259 53.12633082 177 60 C177.10957031 60.72445313 177.21914063 61.44890625 177.33203125 62.1953125 C179.85486734 81.50341807 176.77965631 102.18333777 164.69921875 117.90625 C164.13847656 118.5971875 163.57773437 119.288125 163 120 C162.55269531 120.6084375 162.10539063 121.216875 161.64453125 121.84375 C148.94799478 138.2263777 127.41186823 145.18237842 107.77905273 148.55297852 C103.55910784 149.05215282 99.46579815 149.12610365 95.22265625 149.09765625 C94.14220032 149.09614563 94.14220032 149.09614563 93.03991699 149.09460449 C90.38076151 149.08942095 87.72162895 149.07546017 85.0625 149.0625 C79.101875 149.041875 73.14125 149.02125 67 149 C62.05 136.79 57.1 124.58 52 112 C51.67 142.69 51.34 173.38 51 205 C34.17 205 17.34 205 0 205 C0 137.35 0 69.7 0 0 Z M51 43 C51 64.12 51 85.24 51 107 C57.3525 107.04125 63.705 107.0825 70.25 107.125 C73.2185498 107.15231201 73.2185498 107.15231201 76.24707031 107.18017578 C88.70097892 107.24754504 100.85008037 107.25229138 112 101 C112.69996094 100.61328125 113.39992188 100.2265625 114.12109375 99.828125 C120.4727529 95.74577318 123.82252995 90.1556715 126 83 C127.61790821 73.55991693 126.72598419 64.80945675 121.82421875 56.45703125 C115.63021831 48.11436256 105.9783542 44.74310498 96 43 C94.43549995 42.91854243 92.86812667 42.88206162 91.30151367 42.88647461 C89.93198547 42.88665588 89.93198547 42.88665588 88.53479004 42.88684082 C87.58873901 42.89195679 86.64268799 42.89707275 85.66796875 42.90234375 C84.34859314 42.90385437 84.34859314 42.90385437 83.00256348 42.90539551 C79.7308623 42.91060994 76.45917978 42.92457117 73.1875 42.9375 C62.2046875 42.9684375 62.2046875 42.9684375 51 43 Z " fill="#FFFFFF" transform="translate(835,1863)"/>
<path d="M0 0 C0.66 0 1.32 0 2 0 C3.52887433 2.22043412 4.93106451 4.43920066 6.3125 6.75 C7.22092286 8.2367376 8.13116235 9.72236635 9.04296875 11.20703125 C9.52556152 11.99416504 10.0081543 12.78129883 10.50537109 13.59228516 C12.98200712 17.58192653 15.55406277 21.50821999 18.125 25.4375 C23.12613138 33.09798094 28.07606772 40.78967921 33 48.5 C37.80341041 56.01979429 42.62638605 63.52550479 47.5 71 C53.06984496 79.54228092 58.56888375 88.12870796 64.05859375 96.72265625 C68.17805883 103.1667331 72.32263671 109.59332064 76.5 116 C81.37361538 123.4744974 86.19636404 130.98034813 91 138.5 C95.97569706 146.28672783 100.96542159 154.06368519 106 161.8125 C106.52811279 162.6257373 107.05622559 163.43897461 107.6003418 164.27685547 C111.23477853 169.85932257 114.93506876 175.39207948 118.70703125 180.8828125 C120 183 120 183 120 185 C107.86522941 185.23187962 95.73098715 185.40947211 83.59445095 185.51812172 C77.95857337 185.57027425 72.32421317 185.64098538 66.68920898 185.75439453 C61.24907132 185.8631944 55.81039111 185.92287076 50.36924934 185.94877243 C48.29544183 185.96722532 46.22171263 186.00326299 44.14852715 186.05730057 C27.91293085 186.46358196 27.91293085 186.46358196 23.25959778 182.90332031 C21.42945287 180.33253636 20.18972521 177.91438652 19 175 C18.33460205 173.9903418 17.6692041 172.98068359 16.98364258 171.94042969 C16.19703247 170.69374512 16.19703247 170.69374512 15.39453125 169.421875 C14.80349609 168.48859375 14.21246094 167.5553125 13.60351562 166.59375 C13.01248047 165.6553125 12.42144531 164.716875 11.8125 163.75 C6.49293528 155.31859463 6.49293528 155.31859463 1 147 C-4.35637873 154.49048667 -9.3764033 162.16509194 -14.3125 169.9375 C-15.03429394 171.07109809 -15.75629819 172.2045623 -16.47851562 173.33789062 C-17.79189482 175.3989428 -19.10427406 177.46063281 -20.4152832 179.52319336 C-21.59120512 181.36108087 -22.78970788 183.18456181 -24 185 C-27.02026451 185.28605123 -29.83452484 185.37795795 -32.85595703 185.34057617 C-34.23164856 185.34123329 -34.23164856 185.34123329 -35.63513184 185.34190369 C-38.67623957 185.33980832 -41.7168007 185.31644202 -44.7578125 185.29296875 C-46.86245421 185.28737546 -48.96709982 185.2831041 -51.07174683 185.28010559 C-56.61865979 185.26863584 -62.16533812 185.23915031 -67.7121582 185.20599365 C-73.36927109 185.17533865 -79.02642179 185.16161004 -84.68359375 185.14648438 C-95.78916574 185.11428268 -106.89456338 185.06306061 -118 185 C-116.76947802 181.86486676 -115.50783639 178.97635743 -113.75 176.1015625 C-113.31212158 175.38347412 -112.87424316 174.66538574 -112.4230957 173.92553711 C-111.95347412 173.16635986 -111.48385254 172.40718262 -111 171.625 C-110.25979614 170.42145874 -110.25979614 170.42145874 -109.50463867 169.19360352 C-106.15133752 163.77450126 -102.68371073 158.44712421 -99.11645508 153.16723633 C-95.03930415 147.11328496 -91.11294721 140.96559106 -87.1875 134.8125 C-82.32253821 127.18783173 -77.44126102 119.57546591 -72.5 112 C-67.62624714 104.52559498 -62.80351131 97.01972833 -58 89.5 C-52.68177342 81.17450299 -47.32941036 72.87303585 -41.93359375 64.59765625 C-37.58609335 57.92151927 -33.28890971 51.21389511 -29 44.5 C-22.51072169 34.34458994 -15.98637697 24.21344365 -9.38818359 14.12841797 C-8.08031409 12.12314074 -6.78302998 10.11142037 -5.48828125 8.09765625 C-4.77027344 6.99292969 -4.05226563 5.88820313 -3.3125 4.75 C-2.40951172 3.35007812 -2.40951172 3.35007812 -1.48828125 1.921875 C-0.99714844 1.28765625 -0.50601562 0.6534375 0 0 Z " fill="#D3D3D3" transform="translate(1666,1215)"/>
<path d="M0 0 C0.71800781 0.64582031 1.43601562 1.29164062 2.17578125 1.95703125 C3.06910156 2.75753906 3.96242188 3.55804687 4.8828125 4.3828125 C19.57079502 18.26707504 28.80501644 37.23045371 29.609375 57.5703125 C29.6330406 59.80326039 29.63391369 62.03655327 29.61328125 64.26953125 C29.60425781 65.44942627 29.59523438 66.62932129 29.5859375 67.8449707 C29.15139577 89.83006635 20.46892588 109.24697546 5.30078125 125.20703125 C-13.42422011 142.99216768 -39.03367912 150.67428054 -64.4921875 150.140625 C-87.74087263 148.85963063 -109.43655402 141.96658427 -126.82421875 125.95703125 C-127.45457031 125.41820312 -128.08492187 124.879375 -128.734375 124.32421875 C-142.54414531 111.8041992 -150.7564817 91.55640917 -152.00439453 73.32470703 C-153.23911702 47.65221547 -147.02877476 26.316079 -129.89453125 6.75390625 C-97.80784624 -27.00798721 -35.62599371 -29.72187422 0 0 Z M-88.953125 31.625 C-97.80685968 39.98154872 -101.80968411 49.78436805 -102.22924805 61.83081055 C-102.40783877 75.58766732 -99.49560975 86.67004082 -89.82421875 96.95703125 C-78.67497917 106.07307617 -66.84641143 108.2050064 -52.82421875 106.95703125 C-42.52688739 104.70130396 -32.68446756 98.8496181 -26.82421875 89.95703125 C-19.78628034 77.24964246 -17.93627988 63.99473362 -21.82421875 49.95703125 C-26.37107409 38.12623332 -33.00857276 30.46791356 -44.5546875 25.15234375 C-59.78124721 19.5856445 -76.08228225 21.54087183 -88.953125 31.625 Z " fill="#FFFFFF" transform="translate(1308.82421875,1922.04296875)"/>
<path d="M0 0 C1.13164037 0.92947368 2.25749923 1.86607342 3.375 2.8125 C4.344375 3.51375 5.31375 4.215 6.3125 4.9375 C19.86235957 16.49364726 27.13993453 34.8032643 29.125 52.125 C29.22959161 53.68622109 29.31384171 55.24897502 29.375 56.8125 C29.41496094 57.54984375 29.45492188 58.2871875 29.49609375 59.046875 C29.73680125 67.48579688 28.38035183 75.26700946 27.375 83.8125 C-6.615 83.8125 -40.605 83.8125 -75.625 83.8125 C-87.625 61.8125 -87.625 61.8125 -90.625 55.8125 C-93.79197045 65.31341136 -92.71112726 78.99528536 -89.00390625 88.140625 C-83.28459058 99.22281173 -75.76740849 106.53898541 -63.875 110.6875 C-48.36189934 114.64567624 -33.71362874 113.16000659 -19.68359375 105.69921875 C-15.99174683 103.42187257 -13.38354227 101.13897744 -10.625 97.8125 C0.82126283 102.96989659 10.37448735 114.2735521 19.375 122.8125 C13.61497428 135.10537497 -2.44724247 143.18174747 -14.625 147.8125 C-40.31147706 156.10476488 -69.12279986 155.817876 -93.625 143.8125 C-95.00558594 143.15121094 -95.00558594 143.15121094 -96.4140625 142.4765625 C-116.46861167 132.25156701 -129.26479232 115.30595603 -136.6171875 94.45703125 C-142.90726482 71.71035628 -141.19183845 47.19990092 -129.765625 26.44140625 C-118.26466228 6.53388685 -100.9775925 -6.48653969 -78.8125 -12.4375 C-51.95065323 -19.3440233 -22.70515908 -16.67342801 0 0 Z M-83.01953125 37.7421875 C-86.12353671 41.7449196 -90.625 47.59130641 -90.625 52.8125 C-66.865 52.8125 -43.105 52.8125 -18.625 52.8125 C-19.99142079 43.2475545 -22.80048475 36.40554247 -30.44140625 30.28125 C-47.58267139 18.75152604 -69.15598314 23.05538832 -83.01953125 37.7421875 Z " fill="#FFFFFF" transform="translate(1865.625,1918.1875)"/>
<path d="M0 0 C12.19529332 -0.3949225 24.38905332 -0.69644409 36.58945179 -0.88080692 C42.25586967 -0.96932652 47.91789706 -1.08921596 53.58178711 -1.2824707 C59.0546443 -1.46802569 64.52329883 -1.56898537 69.99905968 -1.61291313 C72.08116554 -1.64418513 74.16305561 -1.70526924 76.2433567 -1.79741096 C92.08032414 -2.47058262 92.08032414 -2.47058262 96.91543198 1.62080765 C100.3222444 5.62041034 102.67691874 10.0462273 104.89870739 14.78189564 C106.68808104 18.38585836 108.93733386 21.67162162 111.1875 25 C115.77838961 32.08605192 120.32836553 39.19799353 124.875 46.3125 C130.23531628 54.69982581 135.62929317 63.06358854 141.06591797 71.40161133 C145.41359982 78.0779794 149.71100275 84.78581325 154 91.5 C160.46138978 101.6138816 166.97942735 111.68916895 173.53125 121.74462891 C181.05475693 133.29751405 188.50414173 144.89702324 195.92114258 156.51855469 C199.22506746 161.68936519 202.54538978 166.84765168 205.9140625 171.9765625 C206.52008301 172.90041748 207.12610352 173.82427246 207.75048828 174.77612305 C208.89330763 176.51459273 210.03995627 178.25055283 211.19091797 179.98364258 C211.69510254 180.75087646 212.19928711 181.51811035 212.71875 182.30859375 C213.16154297 182.97689209 213.60433594 183.64519043 214.06054688 184.33374023 C215 186 215 186 215 188 C203.04038215 188.60576026 191.08447072 189.06594245 179.11257267 189.34711647 C173.55069654 189.48218247 167.99938948 189.66473614 162.44360352 189.96142578 C125.4812807 191.88406803 125.4812807 191.88406803 117.38995361 185.57159424 C111.5611525 179.99922964 108.39650717 172.86495571 105.48460388 165.44949341 C102.94704531 159.55344823 99.3276606 154.43801728 95.75 149.125 C94.42324072 147.0579807 93.10094431 144.98808293 91.78515625 142.9140625 C86.72638064 134.99743221 81.59749999 127.12675939 76.46875 119.25537109 C68.93402545 107.68526049 61.47911524 96.06504173 54.04370117 84.4309082 C49.37435574 77.13102331 44.66700375 69.8571587 39.93408203 62.59838867 C34.89801957 54.86493261 29.92981654 47.08859424 24.96337891 39.31030273 C20.13227501 31.75037908 15.26053686 24.21813989 10.3359375 16.71875 C7.75020077 12.76449834 5.24452895 8.77643822 2.82080078 4.72045898 C2.28979767 3.83269272 1.75879456 2.94492645 1.21170044 2.03025818 C0.81183929 1.36027298 0.41197815 0.69028778 0 0 Z " fill="#EAEAEA" transform="translate(1692,1400)"/>
<path d="M0 0 C38.28 0 76.56 0 116 0 C116.08060607 32.41707386 116.08060607 32.41707386 116.09765625 46.09179688 C116.10948357 55.50156862 116.12332157 64.91130433 116.15087891 74.32104492 C116.17094675 81.17674542 116.18374786 88.03241644 116.18817699 94.88814551 C116.19076194 98.51104326 116.19674468 102.13385674 116.21146011 105.75672722 C116.32160703 134.04497121 115.88670999 160.1767158 97 183 C96.278125 183.99 95.55625 184.98 94.8125 186 C83.2664112 199.53938752 64.61691302 206.44476254 47.375 208.75 C45.91827868 208.85790528 44.4594634 208.93960841 43 209 C42.08734375 209.0515625 41.1746875 209.103125 40.234375 209.15625 C14.4962169 209.93227487 -9.06800079 201.48619282 -28.05859375 184.1171875 C-31.92153852 180.41208348 -35.22898452 176.58949438 -38 172 C-37.52459138 167.36768515 -34.24594018 165.1028218 -30.9375 162.1875 C-30.04949707 161.38747559 -30.04949707 161.38747559 -29.14355469 160.57128906 C-27.43708598 159.03816999 -25.72083296 157.51696023 -24 156 C-23.23300781 155.32066406 -22.46601563 154.64132812 -21.67578125 153.94140625 C-20.42837235 152.84581182 -19.17728722 151.75438317 -17.921875 150.66796875 C-14.24982278 147.48104538 -10.62978757 144.23488012 -7 141 C-3.74396181 142.39140894 -2.00575442 143.93103951 0.1875 146.6875 C8.22794432 156.11363792 18.04188134 162.05382362 30.5078125 163.23828125 C39.4454145 163.49173564 47.16744637 161.55575463 54.3125 156 C60.43014961 150.18445654 64.64993957 141.52782136 65.10380745 133.06422997 C65.16302008 130.67428119 65.1891662 128.28589438 65.20532227 125.89526367 C65.21522186 124.98745148 65.22512146 124.07963928 65.23532104 123.14431763 C65.26683635 120.15222761 65.29165401 117.16012172 65.31640625 114.16796875 C65.33698439 112.09002781 65.35798108 110.01209098 65.37937927 107.93415833 C65.43451114 102.47127614 65.48395956 97.00835673 65.53222656 91.54541016 C65.59135034 84.98743885 65.65752936 78.4295354 65.72252655 71.87162018 C65.82042425 61.91445498 65.90935686 51.95724579 66 42 C44.22 42 22.44 42 0 42 C0 28.14 0 14.28 0 0 Z " fill="#FFFFFF" transform="translate(2197,1863)"/>
<path d="M0 0 C-3.80633898 8.87329826 -7.72465083 17.68995226 -11.8125 26.4375 C-12.19720459 27.27192627 -12.58190918 28.10635254 -12.97827148 28.96606445 C-13.34251221 29.73909912 -13.70675293 30.51213379 -14.08203125 31.30859375 C-14.40405518 31.99751709 -14.7260791 32.68644043 -15.05786133 33.39624023 C-16 35 -16 35 -18 36 C-20.17340686 35.19593015 -22.31405308 34.30300802 -24.4375 33.375 C-30.51592859 30.81752071 -36.618649 28.84666374 -43 27.1875 C-43.78818115 26.98108887 -44.5763623 26.77467773 -45.38842773 26.56201172 C-53.62034268 24.47977519 -61.52691905 23.7955542 -70 23.75 C-71.43859375 23.7190625 -71.43859375 23.7190625 -72.90625 23.6875 C-78.71743923 23.65557039 -82.89386216 24.14167284 -88 27 C-89.5721459 30.14429179 -90.00427913 33.6524029 -89 37 C-85.1588634 40.11382079 -81.57324108 41.68054883 -76.8125 42.875 C-76.19375 43.03299072 -75.575 43.19098145 -74.9375 43.35375977 C-69.34005025 44.74982803 -63.69749851 45.94367119 -58.05981445 47.16430664 C-13.29437834 56.88738024 -13.29437834 56.88738024 -0.0625 75.8125 C6.04340556 86.79013872 6.49447102 100.13481488 3.875 112.1875 C-0.04760629 125.88925498 -7.9543945 135.11207591 -20.02734375 142.40234375 C-49.08308639 158.01837363 -85.34453845 154.89122838 -116 146 C-134.44188336 140.15871453 -134.44188336 140.15871453 -142 135 C-143.30058189 131.09825432 -142.39973991 130.15061511 -140.61328125 126.51953125 C-140.08669922 125.43736328 -139.56011719 124.35519531 -139.01757812 123.24023438 C-138.45490234 122.10908203 -137.89222656 120.97792969 -137.3125 119.8125 C-136.76916016 118.70068359 -136.22582031 117.58886719 -135.66601562 116.44335938 C-132.81087867 110.61225137 -129.91205888 104.80286185 -127 99 C-122.25773285 99.70013787 -118.14645495 101.49819496 -113.75 103.3125 C-98.74304214 109.32945518 -83.7255156 112.16576279 -67.5625 112.25 C-66.57701172 112.270625 -65.59152344 112.29125 -64.57617188 112.3125 C-57.17340153 112.35174597 -50.12282142 111.81815591 -44.4375 106.6875 C-42.68141641 103.4043872 -42.38781631 101.67310211 -43 98 C-45.5496966 92.9006068 -49.49958976 91.80077789 -54.57348633 90.02148438 C-62.05333686 87.7916522 -69.77537796 86.55637199 -77.44360352 85.14819336 C-96.71308232 81.58085752 -117.49021259 77.36893247 -131 62 C-138.45655571 50.84148369 -139.46799834 37.73695776 -137.5 24.68359375 C-134.76423232 12.5125364 -128.36114622 2.51016033 -118.3125 -5.01171875 C-85.60165423 -25.50044144 -31.72097075 -19.91372052 0 0 Z " fill="#FFFFFF" transform="translate(1496,1919)"/>
<path d="M0 0 C24.68332207 -0.55652052 47.38827536 7.05074194 65.4296875 24.18359375 C67.06573404 25.80655192 68.67622361 27.44523798 70.2578125 29.12109375 C68.7623417 32.71830731 66.73074942 34.75206596 63.8203125 37.30859375 C62.92570312 38.09492187 62.03109375 38.88125 61.109375 39.69140625 C57.43714107 42.82035078 53.70352922 45.86782865 49.953125 48.90234375 C45.95282558 52.19534385 42.09672247 55.64237781 38.2578125 59.12109375 C37.81050781 58.734375 37.36320312 58.34765625 36.90234375 57.94921875 C35.64289917 56.86432406 34.37965574 55.78382872 33.11328125 54.70703125 C31.68736731 53.48825007 30.28074261 52.24687332 28.8828125 50.99609375 C19.45187917 44.2597128 8.0559846 42.27880254 -3.3671875 43.62109375 C-13.19787304 45.50331037 -22.6983945 49.91187759 -28.7421875 58.12109375 C-36.32209754 70.68672002 -37.64357457 84.46421774 -35.08984375 98.77734375 C-31.76821674 109.83992986 -24.7798789 117.57474175 -14.7421875 123.12109375 C-3.36283229 128.00308841 9.27427531 128.26928347 20.921875 124.1875 C27.66452901 121.17104952 32.35288268 116.55916812 37.2578125 111.12109375 C43.02517189 115.18633848 48.19058483 119.73641144 53.37109375 124.51953125 C57.11639661 127.89486508 61.01083228 131.05992209 64.9453125 134.2109375 C66.83457006 135.77148977 68.56968361 137.34966903 70.2578125 139.12109375 C64.44452479 152.03001204 48.17568196 159.86573163 35.70703125 164.90625 C10.60113476 173.74875715 -17.11341747 171.4877207 -41.04858398 160.3190918 C-48.35854143 156.74822978 -54.72192099 152.64495232 -60.7421875 147.12109375 C-61.49757813 146.45722656 -62.25296875 145.79335937 -63.03125 145.109375 C-75.60564075 133.42080903 -84.72855502 116.24971436 -86.7421875 99.12109375 C-86.87496094 98.02796875 -87.00773437 96.93484375 -87.14453125 95.80859375 C-89.22433351 73.74866869 -84.65035485 51.74584596 -70.9296875 33.99609375 C-69.55294299 32.35488985 -68.15708281 30.72952372 -66.7421875 29.12109375 C-66.07574219 28.35925781 -65.40929688 27.59742188 -64.72265625 26.8125 C-48.14525143 9.06637276 -23.77097023 1.04971521 0 0 Z " fill="#FFFFFF" transform="translate(1997.7421875,1901.87890625)"/>
<path d="M0 0 C1.68001311 -0.01452387 3.3603995 -0.00113412 5.04011536 0.03364563 C6.41602592 0.03255043 6.41602592 0.03255043 7.81973267 0.03143311 C10.85578773 0.03492038 13.89031421 0.07383567 16.92610168 0.11299133 C19.02930869 0.12231539 21.13252655 0.12943342 23.23574829 0.13442993 C28.77462179 0.15353164 34.31284094 0.20266031 39.85145569 0.25794983 C45.50189867 0.30907361 51.15244727 0.33192931 56.80305481 0.35713196 C67.8925352 0.41077554 78.98152968 0.49612712 90.07063293 0.60127258 C89.36797311 3.62843198 88.48600573 5.81968803 86.80500793 8.44502258 C86.09876282 9.55611389 86.09876282 9.55611389 85.37825012 10.68965149 C84.86423645 11.48548645 84.35022278 12.28132141 83.82063293 13.10127258 C83.28341614 13.94222473 82.74619934 14.78317688 82.19270325 15.64961243 C77.90051902 22.3541286 73.55952453 29.02741391 69.21028137 35.69502258 C64.79181001 42.47261878 60.42553597 49.28269124 56.07063293 56.10127258 C49.60933469 66.21521216 43.09120505 76.29044236 36.53938293 86.34590149 C28.9657311 97.97578774 21.46612333 109.65253258 13.99128723 121.34614563 C12.73297199 123.31462284 11.45607663 125.27138121 10.15843201 127.2141571 C7.99177347 130.55629381 7.99177347 130.55629381 6.47351074 134.22491455 C4.31533467 138.89146337 2.0256625 143.51154216 -3.0384903 145.37905693 C-9.49752135 146.60470716 -16.05435156 146.20560242 -22.58952332 145.96846008 C-24.70651685 145.94232134 -26.82359556 145.92240557 -28.94070435 145.90843201 C-34.49146216 145.85517976 -40.03702365 145.71786758 -45.58573914 145.56257629 C-51.25620721 145.41889924 -56.92752218 145.35532354 -62.59928894 145.28486633 C-73.71158827 145.13508383 -84.82004431 144.89641723 -95.92936707 144.60127258 C-93.26847282 139.73714157 -90.59775863 134.92239038 -87.54655457 130.28877258 C-86.94270935 129.36789856 -86.33886414 128.44702454 -85.71672058 127.49824524 C-85.08564392 126.54224426 -84.45456726 125.58624329 -83.80436707 124.60127258 C-82.45649123 122.54672913 -81.10883625 120.49204076 -79.76139832 118.43721008 C-79.1047821 117.43786438 -78.44816589 116.43851868 -77.77165222 115.40888977 C-75.33147339 111.69009086 -72.90733164 107.96115918 -70.49186707 104.22627258 C-70.06550964 103.56731995 -69.63915222 102.90836731 -69.19987488 102.22944641 C-64.43099116 94.84708204 -59.70547911 87.43690639 -54.97257996 80.03144836 C-50.3034243 72.73179024 -45.59621056 65.4581855 -40.8634491 58.19966125 C-35.82971468 50.46978017 -30.86421341 42.69678664 -25.89933777 34.92256165 C-20.9734598 27.21560885 -16.00664618 19.53636397 -11.00163269 11.88056946 C-10.26009949 10.74458313 -10.26009949 10.74458313 -9.50358582 9.58564758 C-9.0765033 8.93305969 -8.64942078 8.2804718 -8.20939636 7.60810852 C-6.82520461 5.57931801 -6.82520461 5.57931801 -5.90995789 3.01132202 C-3.92936707 0.60127258 -3.92936707 0.60127258 0 0 Z " fill="#FEFEFE" transform="translate(1428.9293670654297,1587.3987274169922)"/>
<path d="M0 0 C1.11052734 -0.00128906 2.22105469 -0.00257812 3.36523438 -0.00390625 C4.51958984 -0.00003906 5.67394531 0.00382812 6.86328125 0.0078125 C8.02923828 0.00394531 9.19519531 0.00007813 10.39648438 -0.00390625 C11.50314453 -0.00261719 12.60980469 -0.00132813 13.75 0 C15.27500122 0.00169189 15.27500122 0.00169189 16.83081055 0.00341797 C19.17578125 0.1328125 19.17578125 0.1328125 20.17578125 1.1328125 C20.20522128 3.75698967 20.170911 6.35115738 20.08984375 8.97265625 C20.06860443 9.76877823 20.04736511 10.56490021 20.02548218 11.38514709 C19.97909182 13.07918113 19.93015387 14.77314697 19.87890625 16.46704102 C19.80205039 19.02802236 19.7343345 21.58911849 19.66796875 24.15039062 C19.44668607 32.18708263 19.1426392 40.14394382 18.17578125 48.1328125 C17.34554443 48.02622314 17.34554443 48.02622314 16.49853516 47.91748047 C1.49604961 46.04724346 -10.14430973 44.94780026 -22.73046875 54.59375 C-33.12376177 63.93859679 -36.79817999 78.69054954 -37.82421875 92.1328125 C-38.0189565 97.67486077 -38.08032986 103.21682735 -38.140625 108.76171875 C-38.16123196 110.36311839 -38.18222931 111.96451305 -38.20359802 113.56590271 C-38.25843274 117.75297985 -38.30800997 121.94010289 -38.35644531 126.1272583 C-38.41584471 131.1660278 -38.48185737 136.20471459 -38.5467453 141.24341583 C-38.64426814 148.87316363 -38.73345623 156.50296782 -38.82421875 164.1328125 C-54.99421875 164.1328125 -71.16421875 164.1328125 -87.82421875 164.1328125 C-87.82421875 110.6728125 -87.82421875 57.2128125 -87.82421875 2.1328125 C-71.65421875 2.1328125 -55.48421875 2.1328125 -38.82421875 2.1328125 C-38.32921875 11.5378125 -38.32921875 11.5378125 -37.82421875 21.1328125 C-36.85484375 19.9571875 -35.88546875 18.7815625 -34.88671875 17.5703125 C-25.8385886 7.32782917 -13.96580182 0.01544279 0 0 Z " fill="#FFFFFF" transform="translate(1125.82421875,1903.8671875)"/>
<path d="M0 0 C0 15.84 0 31.68 0 48 C-6.6 47.34 -13.2 46.68 -20 46 C-29.6647912 46.95585847 -37.67689921 50.70313349 -44.37109375 57.86328125 C-53.34476781 69.63450358 -56.02964901 84.1539753 -56.20532227 98.609375 C-56.21522186 99.32255386 -56.22512146 100.03573273 -56.23532104 100.77052307 C-56.26657656 103.09698315 -56.29154909 105.42346355 -56.31640625 107.75 C-56.33700695 109.37524913 -56.35800417 111.00049329 -56.37937927 112.62573242 C-56.43427847 116.88022804 -56.483828 121.13476939 -56.53222656 125.38934326 C-56.5915658 130.50651494 -56.65761489 135.62360396 -56.72252655 140.7407074 C-56.82013086 148.49375398 -56.90926351 156.24685631 -57 164 C-73.17 164 -89.34 164 -106 164 C-106 110.54 -106 57.08 -106 2 C-89.83 2 -73.66 2 -57 2 C-56.505 11.405 -56.505 11.405 -56 21 C-55.030625 19.824375 -54.06125 18.64875 -53.0625 17.4375 C-37.86755842 0.23682613 -22.84676693 0 0 0 Z " fill="#FFFFFF" transform="translate(2453,1904)"/>
<path d="M0 0 C3.9242181 3.64095588 6.75128629 7.46349156 9.5 12.0625 C10.38108878 13.50365942 11.26398658 14.943714 12.1484375 16.3828125 C12.61217773 17.13852539 13.07591797 17.89423828 13.55371094 18.67285156 C16.01581479 22.63449469 18.57194517 26.53409165 21.125 30.4375 C26.12599388 38.09807262 31.07601054 45.78971289 36 53.5 C41.05586294 61.41384172 46.13076942 69.31447641 51.25 77.1875 C51.77464844 77.99445313 52.29929687 78.80140625 52.83984375 79.6328125 C53.33097656 80.38691406 53.82210938 81.14101562 54.328125 81.91796875 C54.78380859 82.61841309 55.23949219 83.31885742 55.70898438 84.04052734 C56.90284265 85.8525369 58.12829583 87.63899165 59.359375 89.42578125 C61 92 61 92 61 94 C21.4 94 -18.2 94 -59 94 C-58.09526815 90.3810726 -57.26219408 88.54897594 -55.296875 85.5 C-54.73564941 84.6236792 -54.17442383 83.7473584 -53.59619141 82.84448242 C-52.98694824 81.90580322 -52.37770508 80.96712402 -51.75 80 C-51.11884277 79.01813721 -50.48768555 78.03627441 -49.83740234 77.0246582 C-47.89816752 74.01213466 -45.95069587 71.00511255 -44 68 C-43.44666992 67.14712402 -42.89333984 66.29424805 -42.32324219 65.41552734 C-40.23099402 62.19315502 -38.13666576 58.97215912 -36.03808594 55.75390625 C-31.65427214 49.02661051 -27.32228905 42.26695516 -23 35.5 C-7.70718232 11.56077348 -7.70718232 11.56077348 0 0 Z " fill="#EAEAEA" transform="translate(1666,1495)"/>
<path d="M0 0 C15.18 0 30.36 0 46 0 C46 15.18 46 30.36 46 46 C30.82 46 15.64 46 0 46 C0 30.82 0 15.64 0 0 Z " fill="#FFFFFF" transform="translate(2452,2022)"/>
</svg>
